<svg xmlns="http://www.w3.org/2000/svg" viewBox="0 0 993.45 159"><g id="レイヤー_2" data-name="レイヤー 2"><g id="レイヤー_1-2" data-name="レイヤー 1"><path d="M346.43,34,303.89,35.2V159h-35.2V35.2l-42.5,1.19V5.59L346.43,3.21Z"/><path d="M494.51,156.8h-36.4l-9-36h-35.6l-8.4,36h-35.6L410.31,2.2h44.6Zm-49.6-62.6-6.8-31c-2-9.2-4.6-23-6.6-32.4h-.4c-2,9.4-4.6,23.6-6.4,32.4l-7,31Z"/><path d="M663.44,156.8h-40L594.24,93,584,107.4v49.4H549V2.2h35v68h.6c2.8-6.2,5.8-12.2,8.8-18.4l27-49.6H662L618.64,68.8Z"/><path d="M828.53,156.8h-36.4l-9-36h-35.6l-8.4,36h-35.6L744.33,2.2h44.6Zm-49.6-62.6-6.8-31c-2-9.2-4.6-23-6.6-32.4h-.4c-2,9.4-4.6,23.6-6.4,32.4l-7,31Z"/><path d="M993.45,77.4c0,53.8-26.2,81.6-65.2,81.6-42.6,0-63.4-36.8-63.4-79.2,0-43.6,24-79.8,65.6-79.8C975.45,0,993.45,39.8,993.45,77.4Zm-91.6,1.8c-.2,29.6,9.8,50.8,27.6,50.8s27-21.2,27-51.4c0-27-9-49.6-27-49.6C910.65,29,901.85,52.6,901.85,79.2Z"/><path d="M113.33,66.15l-42.5,1.19V36.54l97-1.92V13.21a10,10,0,0,0-10-10H10a10,10,0,0,0-10,10V146.8a10,10,0,0,0,10,10H113.33Z"/><path d="M148.53,66.15V156.8h9.33a10,10,0,0,0,10-10V65.61Z"/></g></g></svg>